<?xml version="1.0" encoding="utf-8"?>
<!-- Generator: Adobe Illustrator 16.0.0, SVG Export Plug-In . SVG Version: 6.00 Build 0)  -->
<!DOCTYPE svg PUBLIC "-//W3C//DTD SVG 1.1//EN" "http://www.w3.org/Graphics/SVG/1.1/DTD/svg11.dtd">
<svg version="1.1" id="Layer_1" xmlns="http://www.w3.org/2000/svg" xmlns:xlink="http://www.w3.org/1999/xlink" x="0px" y="0px"
	 width="99.999px" height="63.027px" viewBox="0 0 99.999 63.027" enable-background="new 0 0 99.999 63.027" xml:space="preserve">
<path fill="#030000" d="M99.046,51.477c-1.291-1.276-3.363-1.276-4.645,0c-2.165,2.164-8.479,6.891-20.489,4.149
	c-8.881-2.031-16.609-10.946-20.376-18.824c0.117-0.35,0.263-0.732,0.405-1.179c8.864-1.034,15.826-5.193,16.158-5.397
	c1.552-0.932,2.052-2.948,1.112-4.5c-0.938-1.552-2.945-2.057-4.502-1.118c-0.061,0.049-4.599,2.729-10.662,4.015
	c2.185-8.2,4.149-19.516,0.477-25.136C55.037,1.235,52.729,0,49.999,0c-2.718,0-5.034,1.235-6.516,3.486
	c-3.679,5.605-1.711,16.936,0.473,25.136c-6.044-1.286-10.606-3.979-10.663-4.015c-1.551-0.939-3.567-0.434-4.505,1.118
	c-0.935,1.552-0.439,3.568,1.115,4.5c0.326,0.204,7.291,4.364,16.154,5.397c0.151,0.447,0.282,0.83,0.403,1.179
	c-3.763,7.878-11.48,16.793-20.371,18.824c-12.005,2.741-18.328-1.985-20.483-4.149c-1.289-1.276-3.364-1.276-4.647,0
	c-1.28,1.286-1.28,3.354,0,4.64c2.938,2.936,11.396,9.385,26.591,5.908c10.3-2.36,18.017-10.923,22.449-18.092
	c4.451,7.169,12.158,15.731,22.453,18.092c3.083,0.71,5.891,0.998,8.438,0.998c9.969,0,15.809-4.559,18.156-6.906
	C100.317,54.83,100.317,52.763,99.046,51.477z M48.964,7.095c0.253-0.375,0.457-0.543,1.035-0.543c0.588,0,0.792,0.168,1.035,0.543
	c1.899,2.887,0.743,11.51-1.035,18.906C48.225,18.605,47.074,9.981,48.964,7.095z"/>
</svg>
