<?xml version="1.0" encoding="utf-8"?>
<!-- Generator: Adobe Illustrator 16.0.0, SVG Export Plug-In . SVG Version: 6.00 Build 0)  -->
<!DOCTYPE svg PUBLIC "-//W3C//DTD SVG 1.1//EN" "http://www.w3.org/Graphics/SVG/1.1/DTD/svg11.dtd">
<svg version="1.1" id="Layer_1" xmlns="http://www.w3.org/2000/svg" xmlns:xlink="http://www.w3.org/1999/xlink" x="0px" y="0px"
	 width="118.447px" height="100px" viewBox="0 0 118.447 100" enable-background="new 0 0 118.447 100" xml:space="preserve">
<g>
	<path d="M111.165,15H7.281C3.26,15,0,11.522,0,7.5C0,3.479,3.26,0,7.281,0h103.884c4.021,0,7.282,3.479,7.282,7.5
		C118.447,11.522,115.187,15,111.165,15z"/>
	<path d="M68.447,57H7.281C3.26,57,0,54.021,0,50s3.26-7,7.281-7h61.166c4.021,0,7.281,2.979,7.281,7S72.468,57,68.447,57z"/>
	<path d="M83.98,100H7.281C3.26,100,0,96.521,0,92.5S3.26,85,7.281,85H83.98c4.021,0,7.282,3.479,7.282,7.5S88.002,100,83.98,100z"
		/>
</g>
</svg>
