<?xml version="1.0" encoding="utf-8"?>
<!-- Generator: Adobe Illustrator 16.0.0, SVG Export Plug-In . SVG Version: 6.00 Build 0)  -->
<!DOCTYPE svg PUBLIC "-//W3C//DTD SVG 1.1//EN" "http://www.w3.org/Graphics/SVG/1.1/DTD/svg11.dtd">
<svg version="1.1" id="Layer_1" xmlns="http://www.w3.org/2000/svg" xmlns:xlink="http://www.w3.org/1999/xlink" x="0px" y="0px"
	 width="159.518px" height="137.482px" viewBox="0 0 159.518 137.482" enable-background="new 0 0 159.518 137.482"
	 xml:space="preserve">
<g>
	<path fill="#040000" d="M136.153,23.365C121.084,8.297,101.051,0,79.741,0S38.397,8.297,23.329,23.365
		c-31.105,31.105-31.105,81.716,0,112.822c1.723,1.727,4.521,1.727,6.246,0c1.725-1.725,1.725-4.521,0-6.244
		c-27.66-27.662-27.66-72.669,0-100.332c13.4-13.398,31.216-20.777,50.166-20.777c18.951,0,36.766,7.379,50.166,20.777
		c13.398,13.398,20.777,31.215,20.777,50.164c0,18.951-7.379,36.768-20.777,50.168c-1.727,1.723-1.727,4.52,0,6.244
		c0.861,0.863,1.992,1.295,3.123,1.295c1.129,0,2.26-0.432,3.123-1.295c15.068-15.066,23.365-35.102,23.365-56.412
		C159.518,58.467,151.221,38.434,136.153,23.365z"/>
	<path fill="#040000" d="M78.219,44.354c-0.085-1.655-1.504-2.95-3.149-2.843c-1.655,0.084-2.928,1.494-2.843,3.149l1.027,20.15
		c0.256,5.009-1.371,9.748-4.463,13.002c-2.447,2.574-5.644,3.994-9,3.994s-6.553-1.42-9-3.994
		c-3.092-3.254-4.719-7.994-4.463-13.002l1.027-20.15c0.085-1.655-1.188-3.065-2.843-3.149c-1.637-0.107-3.064,1.188-3.149,2.843
		l-1.027,20.15c-0.34,6.645,1.886,13.002,6.105,17.442c3.053,3.213,6.939,5.184,11.117,5.707c-0.008,0.176-0.02,0.338-0.023,0.527
		c-0.34,16.121-2.031,32.377-3.047,39.209c-1.016,6.834,11.621,6.834,10.605,0c-1.016-6.832-2.707-23.088-3.047-39.209
		c-0.004-0.189-0.016-0.352-0.023-0.527c4.178-0.523,8.064-2.494,11.117-5.707c4.22-4.439,6.445-10.797,6.105-17.442L78.219,44.354z
		"/>
	<path fill="#040000" d="M56.827,66.965v-23c0-1.381-1.119-2.5-2.5-2.5s-2.5,1.119-2.5,2.5v23c0,1.381,1.119,2.5,2.5,2.5
		S56.827,68.346,56.827,66.965z"/>
	<path fill="#040000" d="M66.827,66.965v-23c0-1.381-1.119-2.5-2.5-2.5s-2.5,1.119-2.5,2.5v23c0,1.381,1.119,2.5,2.5,2.5
		S66.827,68.346,66.827,66.965z"/>
	<path fill="#040000" d="M101.889,132.515c10.332,0,17.188-17.822,17.188-29.611c0-11.105-6.373-19.662-15.127-20.832
		c0.008-0.174,0.02-0.336,0.023-0.523c0.338-16.121,2.031-32.375,3.045-39.208c1.018-6.834-11.619-6.834-10.604,0
		c1.016,6.832,2.707,23.087,3.047,39.208c0.004,0.211,0.016,0.393,0.025,0.584c-8.576,1.346-14.785,9.814-14.785,20.771
		C84.702,114.693,91.557,132.515,101.889,132.515z M101.889,87.923c6.482,0,11.188,6.301,11.188,14.98
		c0,10.592-6.168,23.611-11.188,23.611s-11.188-13.02-11.188-23.611C90.702,94.224,95.407,87.923,101.889,87.923z"/>
</g>
</svg>
