<?xml version="1.0" encoding="utf-8"?>
<!-- Generator: Adobe Illustrator 16.0.0, SVG Export Plug-In . SVG Version: 6.00 Build 0)  -->
<!DOCTYPE svg PUBLIC "-//W3C//DTD SVG 1.1//EN" "http://www.w3.org/Graphics/SVG/1.1/DTD/svg11.dtd">
<svg version="1.1" id="Layer_1" xmlns="http://www.w3.org/2000/svg" xmlns:xlink="http://www.w3.org/1999/xlink" x="0px" y="0px"
	 width="50px" height="43.071px" viewBox="0 0 50 43.071" enable-background="new 0 0 50 43.071" xml:space="preserve">
<g>
	<path d="M41.699,43.071c-0.354,0-0.708-0.135-0.979-0.405c-0.541-0.541-0.541-1.417,0-1.957c4.199-4.199,6.512-9.782,6.512-15.721
		S44.919,13.467,40.72,9.268C32.052,0.6,17.948,0.6,9.28,9.268c-4.199,4.199-6.512,9.782-6.512,15.721S5.081,36.51,9.28,40.709
		c0.541,0.54,0.541,1.416,0,1.957c-0.541,0.54-1.417,0.54-1.958,0C2.601,37.944,0,31.666,0,24.988S2.601,12.032,7.322,7.311
		c9.748-9.748,25.608-9.748,35.356,0C47.4,12.032,50,18.311,50,24.988S47.4,37.944,42.678,42.666
		C42.408,42.937,42.053,43.071,41.699,43.071z"/>
	<path fill="#231815" d="M41.391,29.508c-0.43-0.424-1.123-0.424-1.55,0c-0.724,0.726-2.835,2.305-6.849,1.389
		c-2.97-0.679-5.552-3.66-6.811-6.291c0.04-0.117,0.087-0.247,0.137-0.394c2.96-0.349,5.289-1.737,5.399-1.806
		c0.519-0.312,0.686-0.987,0.373-1.503c-0.313-0.521-0.987-0.688-1.507-0.374c-0.02,0.014-1.537,0.912-3.564,1.34
		c0.73-2.74,1.388-6.523,0.159-8.4c-0.495-0.752-1.269-1.166-2.18-1.166c-0.91,0-1.683,0.414-2.177,1.166
		c-1.23,1.873-0.573,5.66,0.157,8.4c-2.02-0.43-3.546-1.328-3.564-1.34c-0.519-0.313-1.191-0.146-1.506,0.374
		c-0.312,0.516-0.146,1.191,0.373,1.503c0.108,0.068,2.438,1.457,5.399,1.806c0.051,0.146,0.095,0.276,0.136,0.394
		c-1.258,2.631-3.839,5.612-6.811,6.291c-4.011,0.916-6.125-0.663-6.845-1.389c-0.43-0.424-1.124-0.424-1.553,0
		c-0.428,0.43-0.428,1.123,0,1.552c0.98,0.98,3.809,3.136,8.887,1.974c3.442-0.786,6.021-3.648,7.503-6.046
		c1.486,2.397,4.062,5.26,7.504,6.046c1.031,0.237,1.969,0.334,2.82,0.334c3.333,0,5.285-1.524,6.067-2.308
		C41.819,30.631,41.819,29.938,41.391,29.508z M24.655,14.675c0.082-0.125,0.15-0.182,0.345-0.182c0.195,0,0.265,0.057,0.347,0.182
		c0.634,0.964,0.249,3.849-0.347,6.318C24.407,18.523,24.021,15.639,24.655,14.675z"/>
</g>
</svg>
