<?xml version="1.0" encoding="utf-8"?>
<!-- Generator: Adobe Illustrator 16.0.0, SVG Export Plug-In . SVG Version: 6.00 Build 0)  -->
<!DOCTYPE svg PUBLIC "-//W3C//DTD SVG 1.1//EN" "http://www.w3.org/Graphics/SVG/1.1/DTD/svg11.dtd">
<svg version="1.1" id="Layer_1" xmlns="http://www.w3.org/2000/svg" xmlns:xlink="http://www.w3.org/1999/xlink" x="0px" y="0px"
	 width="472px" height="186px" viewBox="-140.5 4.5 472 186" enable-background="new -140.5 4.5 472 186" xml:space="preserve">
<path fill="#D2E4EB" d="M308.612,96.22c0-13.593,9.904-24.867,22.889-27.015V11.007c0-3.866-3.134-7-7-7h-458c-3.866,0-7,3.134-7,7
	v58.054c13.472,1.72,23.888,13.219,23.888,27.159c0,13.938-10.417,25.438-23.888,27.157v59.63c0,3.866,3.134,7,7,7h458
	c3.866,0,7-3.134,7-7v-59.773C318.517,121.086,308.612,109.812,308.612,96.22z"/>
<g>
	<g>
		<path fill="#FFFFFF" d="M-86.5,169.5c-0.53,0-1.04-0.21-1.41-0.59c-0.38-0.37-0.59-0.88-0.59-1.41s0.21-1.04,0.59-1.41
			c0.74-0.75,2.08-0.75,2.82,0c0.38,0.37,0.59,0.88,0.59,1.41c0,0.52-0.21,1.04-0.59,1.41C-85.46,169.29-85.98,169.5-86.5,169.5z"/>
		<path fill="#FFFFFF" d="M-86.5,149.5c-1.104,0-2-0.896-2-2v-1c0-1.104,0.896-2,2-2s2,0.896,2,2v1
			C-84.5,148.604-85.396,149.5-86.5,149.5z M-86.5,129.5c-1.104,0-2-0.896-2-2v-1c0-1.104,0.896-2,2-2s2,0.896,2,2v1
			C-84.5,128.604-85.396,129.5-86.5,129.5z M-86.5,109.5c-1.104,0-2-0.896-2-2v-1c0-1.104,0.896-2,2-2s2,0.896,2,2v1
			C-84.5,108.604-85.396,109.5-86.5,109.5z M-86.5,89.5c-1.104,0-2-0.896-2-2v-1c0-1.104,0.896-2,2-2s2,0.896,2,2v1
			C-84.5,88.604-85.396,89.5-86.5,89.5z M-86.5,69.5c-1.104,0-2-0.896-2-2v-1c0-1.104,0.896-2,2-2s2,0.896,2,2v1
			C-84.5,68.604-85.396,69.5-86.5,69.5z M-86.5,49.5c-1.104,0-2-0.896-2-2v-1c0-1.104,0.896-2,2-2s2,0.896,2,2v1
			C-84.5,48.604-85.396,49.5-86.5,49.5z"/>
		<path fill="#FFFFFF" d="M-86.5,27.5c-0.53,0-1.04-0.21-1.41-0.59c-0.38-0.37-0.59-0.88-0.59-1.41c0-0.53,0.21-1.04,0.59-1.41
			c0.74-0.75,2.08-0.75,2.83,0c0.37,0.37,0.58,0.89,0.58,1.41c0,0.53-0.21,1.04-0.58,1.41C-85.46,27.29-85.97,27.5-86.5,27.5z"/>
	</g>
	<g>
		<path fill="#FFFFFF" d="M278.5,27.5c-0.53,0-1.04-0.21-1.41-0.59c-0.38-0.37-0.59-0.88-0.59-1.41c0-0.53,0.21-1.04,0.59-1.41
			c0.74-0.75,2.08-0.75,2.82,0c0.38,0.37,0.59,0.88,0.59,1.41c0,0.52-0.21,1.04-0.59,1.41C279.54,27.29,279.02,27.5,278.5,27.5z"/>
		<path fill="#FFFFFF" d="M278.5,148.5c-1.104,0-2-0.896-2-2v-1c0-1.104,0.896-2,2-2s2,0.896,2,2v1
			C280.5,147.604,279.604,148.5,278.5,148.5z M278.5,128.5c-1.104,0-2-0.896-2-2v-1c0-1.104,0.896-2,2-2s2,0.896,2,2v1
			C280.5,127.604,279.604,128.5,278.5,128.5z M278.5,108.5c-1.104,0-2-0.896-2-2v-1c0-1.104,0.896-2,2-2s2,0.896,2,2v1
			C280.5,107.604,279.604,108.5,278.5,108.5z M278.5,88.5c-1.104,0-2-0.896-2-2v-1c0-1.104,0.896-2,2-2s2,0.896,2,2v1
			C280.5,87.604,279.604,88.5,278.5,88.5z M278.5,68.5c-1.104,0-2-0.896-2-2v-1c0-1.104,0.896-2,2-2s2,0.896,2,2v1
			C280.5,67.604,279.604,68.5,278.5,68.5z M278.5,48.5c-1.104,0-2-0.896-2-2v-1c0-1.104,0.896-2,2-2s2,0.896,2,2v1
			C280.5,47.604,279.604,48.5,278.5,48.5z"/>
		<path fill="#FFFFFF" d="M278.5,169.5c-0.521,0-1.04-0.21-1.41-0.59c-0.38-0.37-0.59-0.891-0.59-1.41c0-0.53,0.21-1.04,0.59-1.41
			c0.74-0.75,2.08-0.75,2.82,0c0.38,0.37,0.59,0.88,0.59,1.41c0,0.52-0.21,1.04-0.58,1.41C279.54,169.29,279.02,169.5,278.5,169.5z"
			/>
	</g>
</g>
</svg>
