<?xml version="1.0" encoding="utf-8"?>
<!-- Generator: Adobe Illustrator 16.0.0, SVG Export Plug-In . SVG Version: 6.00 Build 0)  -->
<!DOCTYPE svg PUBLIC "-//W3C//DTD SVG 1.1//EN" "http://www.w3.org/Graphics/SVG/1.1/DTD/svg11.dtd">
<svg version="1.1" id="Layer_1" xmlns="http://www.w3.org/2000/svg" xmlns:xlink="http://www.w3.org/1999/xlink" x="0px" y="0px"
	 width="472px" height="186px" viewBox="0 0 472 186" enable-background="new 0 0 472 186" xml:space="preserve">
<path fill="#FFFFFF" d="M449.111-180.787c0-13.593,9.904-24.867,22.889-27.015V-266c0-3.866-3.134-7-7-7H7c-3.867,0-7,3.134-7,7
	v58.055c13.471,1.719,23.888,13.219,23.888,27.158c0,13.938-10.417,25.438-23.888,27.157V-94c0,3.866,3.133,7,7,7h458
	c3.866,0,7-3.134,7-7v-59.773C459.015-155.921,449.111-167.195,449.111-180.787z"/>
<g>
	<g>
		<line fill="none" stroke="#DB454A" stroke-linecap="round" stroke-miterlimit="10" x1="44" y1="-109.89" x2="44" y2="-111.39"/>
		
			<line fill="none" stroke="#DB454A" stroke-linecap="round" stroke-miterlimit="10" stroke-dasharray="2.9404,7.8412" x1="44" y1="-119.23" x2="44" y2="-244.689"/>
		<line fill="none" stroke="#DB454A" stroke-linecap="round" stroke-miterlimit="10" x1="44" y1="-248.61" x2="44" y2="-250.11"/>
	</g>
</g>
<g>
	<g>
		<line fill="none" stroke="#DB454A" stroke-linecap="round" stroke-miterlimit="10" x1="428" y1="-109.89" x2="428" y2="-111.39"/>
		
			<line fill="none" stroke="#DB454A" stroke-linecap="round" stroke-miterlimit="10" stroke-dasharray="2.9404,7.8412" x1="428" y1="-119.23" x2="428" y2="-244.689"/>
		<line fill="none" stroke="#DB454A" stroke-linecap="round" stroke-miterlimit="10" x1="428" y1="-248.61" x2="428" y2="-250.11"/>
	</g>
</g>
<g>
	<path fill="#FFFFFF" d="M449.111,92.213c0-13.593,9.904-24.867,22.889-27.015V7c0-3.866-3.134-7-7-7H7C3.133,0,0,3.134,0,7v58.055
		c13.471,1.719,23.888,13.219,23.888,27.158c0,13.938-10.417,25.438-23.888,27.157V179c0,3.866,3.133,7,7,7h458c3.866,0,7-3.134,7-7
		v-59.773C459.015,117.079,449.111,105.805,449.111,92.213z"/>
	<g>
		<path fill="#DB454A" d="M44,163.61c-0.276,0-0.5-0.224-0.5-0.5v-1.5c0-0.276,0.224-0.5,0.5-0.5s0.5,0.224,0.5,0.5v1.5
			C44.5,163.387,44.276,163.61,44,163.61z"/>
		<path fill="#DB454A" d="M44,154.27c-0.276,0-0.5-0.224-0.5-0.5v-2.94c0-0.276,0.224-0.5,0.5-0.5s0.5,0.224,0.5,0.5v2.94
			C44.5,154.046,44.276,154.27,44,154.27z M44,143.488c-0.276,0-0.5-0.224-0.5-0.5v-2.94c0-0.276,0.224-0.5,0.5-0.5
			s0.5,0.224,0.5,0.5v2.94C44.5,143.265,44.276,143.488,44,143.488z M44,132.706c-0.276,0-0.5-0.224-0.5-0.5v-2.94
			c0-0.276,0.224-0.5,0.5-0.5s0.5,0.224,0.5,0.5v2.94C44.5,132.482,44.276,132.706,44,132.706z M44,121.925
			c-0.276,0-0.5-0.224-0.5-0.5v-2.94c0-0.276,0.224-0.5,0.5-0.5s0.5,0.224,0.5,0.5v2.94C44.5,121.701,44.276,121.925,44,121.925z
			 M44,111.143c-0.276,0-0.5-0.224-0.5-0.5v-2.94c0-0.276,0.224-0.5,0.5-0.5s0.5,0.224,0.5,0.5v2.94
			C44.5,110.919,44.276,111.143,44,111.143z M44,100.361c-0.276,0-0.5-0.224-0.5-0.5v-2.94c0-0.276,0.224-0.5,0.5-0.5
			s0.5,0.224,0.5,0.5v2.94C44.5,100.138,44.276,100.361,44,100.361z M44,89.58c-0.276,0-0.5-0.224-0.5-0.5v-2.94
			c0-0.276,0.224-0.5,0.5-0.5s0.5,0.224,0.5,0.5v2.94C44.5,89.356,44.276,89.58,44,89.58z M44,78.798c-0.276,0-0.5-0.224-0.5-0.5
			v-2.94c0-0.276,0.224-0.5,0.5-0.5s0.5,0.224,0.5,0.5v2.94C44.5,78.574,44.276,78.798,44,78.798z M44,68.017
			c-0.276,0-0.5-0.224-0.5-0.5v-2.94c0-0.276,0.224-0.5,0.5-0.5s0.5,0.224,0.5,0.5v2.94C44.5,67.793,44.276,68.017,44,68.017z
			 M44,57.235c-0.276,0-0.5-0.224-0.5-0.5v-2.941c0-0.276,0.224-0.5,0.5-0.5s0.5,0.224,0.5,0.5v2.941
			C44.5,57.012,44.276,57.235,44,57.235z M44,46.453c-0.276,0-0.5-0.224-0.5-0.5v-2.94c0-0.276,0.224-0.5,0.5-0.5s0.5,0.224,0.5,0.5
			v2.94C44.5,46.229,44.276,46.453,44,46.453z M44,35.672c-0.276,0-0.5-0.224-0.5-0.5v-2.94c0-0.276,0.224-0.5,0.5-0.5
			s0.5,0.224,0.5,0.5v2.94C44.5,35.448,44.276,35.672,44,35.672z"/>
		<path fill="#DB454A" d="M44,24.89c-0.276,0-0.5-0.224-0.5-0.5v-1.5c0-0.276,0.224-0.5,0.5-0.5s0.5,0.224,0.5,0.5v1.5
			C44.5,24.666,44.276,24.89,44,24.89z"/>
	</g>
	<g>
		<path fill="#DB454A" d="M428,163.61c-0.276,0-0.5-0.224-0.5-0.5v-1.5c0-0.276,0.224-0.5,0.5-0.5s0.5,0.224,0.5,0.5v1.5
			C428.5,163.387,428.276,163.61,428,163.61z"/>
		<path fill="#DB454A" d="M428,154.27c-0.276,0-0.5-0.224-0.5-0.5v-2.94c0-0.276,0.224-0.5,0.5-0.5s0.5,0.224,0.5,0.5v2.94
			C428.5,154.046,428.276,154.27,428,154.27z M428,143.488c-0.276,0-0.5-0.224-0.5-0.5v-2.94c0-0.276,0.224-0.5,0.5-0.5
			s0.5,0.224,0.5,0.5v2.94C428.5,143.265,428.276,143.488,428,143.488z M428,132.706c-0.276,0-0.5-0.224-0.5-0.5v-2.94
			c0-0.276,0.224-0.5,0.5-0.5s0.5,0.224,0.5,0.5v2.94C428.5,132.482,428.276,132.706,428,132.706z M428,121.925
			c-0.276,0-0.5-0.224-0.5-0.5v-2.94c0-0.276,0.224-0.5,0.5-0.5s0.5,0.224,0.5,0.5v2.94C428.5,121.701,428.276,121.925,428,121.925z
			 M428,111.143c-0.276,0-0.5-0.224-0.5-0.5v-2.94c0-0.276,0.224-0.5,0.5-0.5s0.5,0.224,0.5,0.5v2.94
			C428.5,110.919,428.276,111.143,428,111.143z M428,100.361c-0.276,0-0.5-0.224-0.5-0.5v-2.94c0-0.276,0.224-0.5,0.5-0.5
			s0.5,0.224,0.5,0.5v2.94C428.5,100.138,428.276,100.361,428,100.361z M428,89.58c-0.276,0-0.5-0.224-0.5-0.5v-2.94
			c0-0.276,0.224-0.5,0.5-0.5s0.5,0.224,0.5,0.5v2.94C428.5,89.356,428.276,89.58,428,89.58z M428,78.798
			c-0.276,0-0.5-0.224-0.5-0.5v-2.94c0-0.276,0.224-0.5,0.5-0.5s0.5,0.224,0.5,0.5v2.94C428.5,78.574,428.276,78.798,428,78.798z
			 M428,68.017c-0.276,0-0.5-0.224-0.5-0.5v-2.94c0-0.276,0.224-0.5,0.5-0.5s0.5,0.224,0.5,0.5v2.94
			C428.5,67.793,428.276,68.017,428,68.017z M428,57.235c-0.276,0-0.5-0.224-0.5-0.5v-2.941c0-0.276,0.224-0.5,0.5-0.5
			s0.5,0.224,0.5,0.5v2.941C428.5,57.012,428.276,57.235,428,57.235z M428,46.453c-0.276,0-0.5-0.224-0.5-0.5v-2.94
			c0-0.276,0.224-0.5,0.5-0.5s0.5,0.224,0.5,0.5v2.94C428.5,46.229,428.276,46.453,428,46.453z M428,35.672
			c-0.276,0-0.5-0.224-0.5-0.5v-2.94c0-0.276,0.224-0.5,0.5-0.5s0.5,0.224,0.5,0.5v2.94C428.5,35.448,428.276,35.672,428,35.672z"/>
		<path fill="#DB454A" d="M428,24.89c-0.276,0-0.5-0.224-0.5-0.5v-1.5c0-0.276,0.224-0.5,0.5-0.5s0.5,0.224,0.5,0.5v1.5
			C428.5,24.666,428.276,24.89,428,24.89z"/>
	</g>
</g>
</svg>
