<?xml version="1.0" encoding="utf-8"?>
<!-- Generator: Adobe Illustrator 16.0.0, SVG Export Plug-In . SVG Version: 6.00 Build 0)  -->
<!DOCTYPE svg PUBLIC "-//W3C//DTD SVG 1.1//EN" "http://www.w3.org/Graphics/SVG/1.1/DTD/svg11.dtd">
<svg version="1.1" id="Layer_1" xmlns="http://www.w3.org/2000/svg" xmlns:xlink="http://www.w3.org/1999/xlink" x="0px" y="0px"
	 width="571px" height="29.915px" viewBox="0 0 571 29.915" enable-background="new 0 0 571 29.915" xml:space="preserve">
<path fill="#FFFFFF" d="M0,0v29.665c9,0,8.762-11.75,17.147-11.75s8.511,12,16.897,12c8.385,0,8.385-12,16.771-12
	s8.386,12,16.771,12c8.381,0,8.381-12,16.762-12c8.385,0,8.385,12,16.77,12c8.383,0,8.383-12,16.766-12s8.383,12,16.766,12
	s8.383-12,16.765-12c8.384,0,8.384,12,16.767,12s8.383-12,16.765-12s8.382,12,16.763,12s8.381-12,16.762-12
	c8.383,0,8.383,12,16.765,12s8.382-12,16.765-12s8.383,12,16.767,12c8.382,0,8.382-12,16.765-12s8.383,12,16.766,12
	c8.382,0,8.382-12,16.764-12c8.381,0,8.381,12,16.762,12c8.383,0,8.383-12,16.766-12s8.383,12,16.766,12c8.382,0,8.382-12,16.764-12
	c8.381,0,8.381,12,16.762,12c8.383,0,8.383-12,16.765-12c8.381,0,8.382,12,16.764,12c8.381,0,8.383-12,16.764-12
	c8.382,0,8.386,12,16.769,12c8.38,0,8.388-12,16.768-12c8.383,0,8.398,12,16.781,12c8.381,0,8.412-12,16.792-12
	c8.382,0,8.444,12,16.825,12s8.506-12,16.886-12S562,29.665,571,29.665V0H0z"/>
</svg>
