<?xml version="1.0" encoding="utf-8"?>
<!-- Generator: Adobe Illustrator 16.0.0, SVG Export Plug-In . SVG Version: 6.00 Build 0)  -->
<!DOCTYPE svg PUBLIC "-//W3C//DTD SVG 1.1//EN" "http://www.w3.org/Graphics/SVG/1.1/DTD/svg11.dtd">
<svg version="1.1" id="Layer_1" xmlns="http://www.w3.org/2000/svg" xmlns:xlink="http://www.w3.org/1999/xlink" x="0px" y="0px"
	 width="126.583px" height="143.324px" viewBox="0 0 126.583 143.324" enable-background="new 0 0 126.583 143.324"
	 xml:space="preserve">
<g>
	<path d="M124.015,46.663c-0.4-0.333-0.943-0.455-1.447-0.333c-0.071,0.013-7.263,1.757-12.25,1.034
		c-0.898-0.116-1.742,0.501-1.875,1.402c-0.129,0.905,0.501,1.745,1.406,1.874c2.58,0.372,5.534,0.174,8.044-0.143
		c-12.919,8.196-35.446,9.692-44.812-0.381c-4.246-4.558-7.028-11.369-8.755-18.408c0.394-1.942,0.756-4.232,1.065-6.668
		c4.718-0.488,9.57-0.802,13.325-0.618c0.875,0.117,1.686-0.652,1.737-1.563c0.046-0.915-0.655-1.693-1.569-1.738
		c-3.761-0.194-8.477,0.084-13.111,0.546c0.834-8.477,0.874-17.665-1.003-20.375C63.989,0.168,63.006,0,62.489,0
		c-0.783,0-1.879,0.368-2.645,2.126c-1.295,2.975-1.701,11.107-0.556,20.298c-6.143,0.818-11.084,1.738-11.753,1.929
		c-0.879,0.252-1.386,1.167-1.134,2.045c0.207,0.727,0.869,1.198,1.588,1.198c0.151,0,0.305-0.02,0.457-0.064
		c0.617-0.178,5.397-1.043,11.319-1.825c0.326,2.019,0.72,4.061,1.203,6.089c-0.281,1.234-0.586,2.313-0.911,3.176
		c-2.657,7.085-11.38,16.557-21.376,20.15c-16.375,5.882-31.573-4.637-33.886-6.953c-0.646-0.646-1.693-0.646-2.339,0
		c-0.646,0.646-0.646,1.693,0,2.339c3.085,3.089,19.422,14.17,37.343,7.728c10.64-3.825,19.384-13.219,22.781-20.715
		c1.885,5.741,4.522,11.03,8.076,14.852c5.24,5.631,13.776,8.112,22.782,8.112c9.789,0,20.095-2.959,27.338-7.967
		c-0.287,1.899-0.717,4.148-1.382,6.396c-0.26,0.875,0.238,1.796,1.117,2.055c0.155,0.044,0.313,0.067,0.469,0.067
		c0.714,0,1.373-0.465,1.586-1.186c1.719-5.802,2.028-11.588,2.042-11.831C124.635,47.5,124.415,46.996,124.015,46.663z
		 M62.54,4.335c0.747,2.969,0.642,10.241-0.031,17.194C61.61,13.856,61.812,7.149,62.54,4.335z"/>
	<g>
		<g>
			<path d="M5.967,100.289c-0.79,0.365-1.571,0.542-2.339,0.542c-1.41,0-2.114-0.74-2.114-2.232v-4.82H0v-1.024h1.514v-2.162h1.151
				v2.162h2.683v1.024H2.665v4.51c0,0.481,0.105,0.85,0.32,1.118c0.208,0.265,0.496,0.401,0.86,0.401
				c0.648,0,1.284-0.146,1.916-0.433L5.967,100.289z"/>
			<path d="M14.929,100.647h-1.17c-0.096-0.317-0.144-0.746-0.144-1.273c-0.674,0.979-1.588,1.48-2.745,1.48
				c-0.585,0-1.1-0.217-1.549-0.63c-0.449-0.417-0.669-0.953-0.669-1.612c0-0.388,0.079-0.73,0.236-1.024
				c0.155-0.3,0.384-0.549,0.689-0.756c0.302-0.207,0.669-0.372,1.105-0.481c0.433-0.129,0.95-0.207,1.543-0.255l1.329-0.097v-0.381
				c0-1.351-0.631-2.036-1.895-2.036c-0.301,0-0.675,0.071-1.136,0.197c-0.457,0.123-0.847,0.281-1.176,0.455l-0.31-0.85
				c1.077-0.549,2.074-0.827,3-0.827c1.8,0,2.697,0.959,2.697,2.862v3.392C14.736,99.497,14.802,100.108,14.929,100.647z
				 M13.556,98.308v-1.435c-1.067,0.101-1.799,0.188-2.197,0.269c-0.396,0.081-0.738,0.232-1.029,0.462
				c-0.292,0.232-0.436,0.539-0.436,0.92c0,0.358,0.123,0.649,0.373,0.866c0.247,0.21,0.561,0.32,0.945,0.32
				c0.421,0,0.838-0.12,1.252-0.368C12.874,99.09,13.242,98.741,13.556,98.308z"/>
			<path d="M24.353,100.647h-1.554l-3.348-3.925l-0.772,0.666v3.26h-1.183v-10.69h1.183v6.128l3.704-3.331h1.508l-3.599,3.221
				L24.353,100.647z"/>
			<path d="M32.657,96.732h-5.413c0,0.898,0.255,1.641,0.779,2.216c0.513,0.585,1.148,0.866,1.899,0.866
				c0.719,0,1.458-0.123,2.222-0.381l0.206,0.95c-0.703,0.31-1.514,0.472-2.442,0.472c-1.173,0-2.118-0.381-2.833-1.131
				C26.359,98.968,26,97.946,26,96.674c0-1.253,0.319-2.255,0.963-2.995c0.644-0.747,1.478-1.121,2.499-1.121
				c0.906,0,1.672,0.349,2.281,1.047c0.609,0.685,0.915,1.605,0.915,2.759V96.732z M31.369,95.782c0-0.627-0.192-1.144-0.576-1.564
				c-0.381-0.426-0.81-0.636-1.284-0.636c-0.614,0-1.12,0.207-1.521,0.611c-0.402,0.4-0.627,0.93-0.672,1.589H31.369z"/>
			<path d="M44.418,100.647h-1.181v-6.868H40.91v-1.024h3.508V100.647z M43.841,89.77c0.223,0,0.414,0.077,0.568,0.242
				c0.159,0.152,0.238,0.343,0.238,0.565c0,0.233-0.079,0.43-0.234,0.582c-0.152,0.159-0.342,0.24-0.572,0.24
				c-0.203,0-0.389-0.087-0.547-0.256c-0.16-0.151-0.236-0.349-0.236-0.565c0-0.219,0.076-0.403,0.236-0.565
				C43.452,89.847,43.638,89.77,43.841,89.77z"/>
			<path d="M55.309,100.289c-0.792,0.365-1.573,0.542-2.34,0.542c-1.407,0-2.115-0.74-2.115-2.232v-4.82H49.34v-1.024h1.513v-2.162
				h1.153v2.162h2.678v1.024h-2.678v4.51c0,0.481,0.104,0.85,0.316,1.118c0.211,0.265,0.501,0.401,0.863,0.401
				c0.648,0,1.291-0.146,1.919-0.433L55.309,100.289z"/>
			<path d="M69.381,100.647h-1.172c-0.097-0.317-0.146-0.746-0.146-1.273c-0.675,0.979-1.586,1.48-2.743,1.48
				c-0.587,0-1.103-0.217-1.545-0.63c-0.453-0.417-0.674-0.953-0.674-1.612c0-0.388,0.078-0.73,0.234-1.024
				c0.159-0.3,0.388-0.549,0.691-0.756c0.302-0.207,0.671-0.372,1.106-0.481c0.432-0.129,0.95-0.207,1.546-0.255l1.323-0.097v-0.381
				c0-1.351-0.634-2.036-1.895-2.036c-0.297,0-0.672,0.071-1.133,0.197c-0.457,0.123-0.846,0.281-1.175,0.455l-0.311-0.85
				c1.074-0.549,2.076-0.827,2.997-0.827c1.801,0,2.7,0.959,2.7,2.862v3.392C69.185,99.497,69.249,100.108,69.381,100.647z
				 M68.002,98.308v-1.435c-1.063,0.101-1.798,0.188-2.196,0.269c-0.391,0.081-0.739,0.232-1.026,0.462
				c-0.293,0.232-0.437,0.539-0.437,0.92c0,0.358,0.123,0.649,0.37,0.866c0.247,0.21,0.564,0.32,0.95,0.32
				c0.42,0,0.835-0.12,1.247-0.368C67.323,99.09,67.691,98.741,68.002,98.308z"/>
			<path d="M77.203,93.883c-0.66-0.22-1.286-0.33-1.875-0.33c-0.639,0-1.146,0.11-1.521,0.323c-0.372,0.217-0.559,0.501-0.559,0.866
				c0,0.222,0.084,0.419,0.258,0.594c0.167,0.162,0.511,0.319,1.027,0.472l1.131,0.326c0.517,0.149,0.943,0.316,1.272,0.523
				c0.33,0.207,0.575,0.452,0.736,0.74c0.166,0.291,0.252,0.633,0.252,1.014c0,0.756-0.323,1.344-0.95,1.777
				c-0.634,0.442-1.435,0.666-2.41,0.666c-0.973,0-1.77-0.152-2.4-0.44l0.223-1.024c0.666,0.311,1.37,0.468,2.129,0.468
				c0.656,0,1.192-0.12,1.606-0.371c0.406-0.246,0.62-0.565,0.62-0.973c0-0.274-0.104-0.513-0.31-0.73
				c-0.207-0.213-0.685-0.436-1.441-0.672c-0.614-0.178-1.063-0.32-1.357-0.414c-0.284-0.097-0.549-0.239-0.802-0.416
				c-0.245-0.188-0.432-0.404-0.562-0.65c-0.129-0.255-0.194-0.54-0.194-0.85c0-0.685,0.304-1.225,0.895-1.622
				c0.598-0.396,1.386-0.604,2.375-0.604c0.633,0,1.344,0.116,2.12,0.333L77.203,93.883z"/>
			<path d="M91.767,100.647h-1.183v-1.176c-0.85,0.912-1.737,1.36-2.679,1.36c-1.482,0-2.225-0.898-2.225-2.682v-5.395h1.185v5.049
				c0,0.666,0.106,1.172,0.32,1.505c0.213,0.33,0.568,0.498,1.072,0.498c0.724,0,1.499-0.456,2.326-1.354v-5.699h1.183V100.647z"/>
			<path d="M99.798,93.883c-0.659-0.22-1.283-0.33-1.867-0.33c-0.644,0-1.15,0.11-1.522,0.323c-0.371,0.217-0.564,0.501-0.564,0.866
				c0,0.222,0.09,0.419,0.259,0.594c0.174,0.162,0.517,0.319,1.033,0.472l1.131,0.326c0.518,0.149,0.939,0.316,1.27,0.523
				c0.326,0.207,0.572,0.452,0.736,0.74c0.165,0.291,0.249,0.633,0.249,1.014c0,0.756-0.316,1.344-0.95,1.777
				c-0.63,0.442-1.435,0.666-2.403,0.666c-0.972,0-1.771-0.152-2.406-0.44l0.229-1.024c0.666,0.311,1.37,0.468,2.133,0.468
				c0.652,0,1.188-0.12,1.599-0.371c0.411-0.246,0.617-0.565,0.617-0.973c0-0.274-0.104-0.513-0.307-0.73
				c-0.204-0.213-0.688-0.436-1.444-0.672c-0.607-0.178-1.06-0.32-1.351-0.414c-0.284-0.097-0.556-0.239-0.797-0.416
				c-0.25-0.188-0.437-0.404-0.569-0.65c-0.126-0.255-0.191-0.54-0.191-0.85c0-0.685,0.298-1.225,0.896-1.622
				c0.598-0.396,1.383-0.604,2.368-0.604c0.637,0,1.344,0.116,2.119,0.333L99.798,93.883z"/>
			<path d="M109.454,100.647h-1.179v-1.176c-0.854,0.912-1.745,1.36-2.682,1.36c-1.482,0-2.224-0.898-2.224-2.682v-5.395h1.184
				v5.049c0,0.666,0.103,1.172,0.319,1.505c0.21,0.33,0.569,0.498,1.075,0.498c0.718,0,1.493-0.456,2.327-1.354v-5.699h1.179
				V100.647z"/>
			<path d="M118.51,100.647h-1.173c-0.094-0.317-0.146-0.746-0.146-1.273c-0.672,0.979-1.583,1.48-2.739,1.48
				c-0.585,0-1.105-0.217-1.551-0.63c-0.446-0.417-0.672-0.953-0.672-1.612c0-0.388,0.081-0.73,0.238-1.024
				c0.155-0.3,0.382-0.549,0.692-0.756c0.297-0.207,0.665-0.372,1.101-0.481c0.434-0.129,0.953-0.207,1.548-0.255l1.324-0.097
				v-0.381c0-1.351-0.633-2.036-1.893-2.036c-0.301,0-0.679,0.071-1.134,0.197c-0.462,0.123-0.85,0.281-1.177,0.455l-0.31-0.85
				c1.076-0.549,2.071-0.827,2.995-0.827c1.802,0,2.7,0.959,2.7,2.862v3.392C118.315,99.497,118.38,100.108,118.51,100.647z
				 M117.133,98.308v-1.435c-1.065,0.101-1.799,0.188-2.196,0.269c-0.395,0.081-0.736,0.232-1.027,0.462
				c-0.291,0.232-0.433,0.539-0.433,0.92c0,0.358,0.122,0.649,0.371,0.866c0.242,0.21,0.56,0.32,0.947,0.32
				c0.419,0,0.833-0.12,1.247-0.368C116.451,99.09,116.82,98.741,117.133,98.308z"/>
			<path d="M126.583,100.647h-3.228v-9.666h-2.061v-1.024h3.243v9.666h2.045V100.647z"/>
		</g>
	</g>
	<g>
		<path d="M35.962,116.736h12.64c0.837,0,1.517-0.678,1.517-1.512c0-0.836-0.68-1.515-1.517-1.515h-12.64
			c-0.838,0-1.518,0.678-1.518,1.515C34.444,116.058,35.124,116.736,35.962,116.736z"/>
		<path d="M48.607,133.678h-6.494c-3.265,0-4.853-1.493-4.853-4.559v-4.981h11.341c0.837,0,1.517-0.679,1.517-1.515
			c0-0.837-0.68-1.515-1.517-1.515H35.744c-0.839,0-1.519,0.678-1.519,1.515v6.497c0,4.752,2.948,7.588,7.888,7.588h6.494
			c0.838,0,1.519-0.678,1.519-1.515C50.125,134.356,49.445,133.678,48.607,133.678z"/>
		<path d="M88.888,131.995c0.837,0,1.519-0.679,1.519-1.515v-16.296c0-0.836-0.682-1.515-1.519-1.515s-1.515,0.679-1.515,1.515
			v16.296C87.373,131.316,88.051,131.995,88.888,131.995z"/>
		<path d="M61.484,127.284h-2.335v-13.101c0-0.836-0.68-1.515-1.516-1.515c-0.839,0-1.519,0.679-1.519,1.515v27.622
			c0,0.833,0.68,1.512,1.519,1.512c0.836,0,1.516-0.679,1.516-1.512v-11.491h2.335c0.838,0,1.518-0.679,1.518-1.515
			C63.002,127.962,62.322,127.284,61.484,127.284z"/>
		<path d="M91.124,140.294c-2.582,0-8.125-3.984-8.125-5.838c0-0.836-0.678-1.515-1.518-1.515c-0.834,0-1.515,0.679-1.515,1.515
			c0,1.854-5.622,5.838-8.238,5.838c-0.837,0-1.515,0.679-1.515,1.515s0.678,1.515,1.515,1.515c2.685,0,7.323-2.542,9.721-5.453
			c2.345,2.933,6.936,5.453,9.676,5.453c0.836,0,1.515-0.679,1.515-1.515S91.96,140.294,91.124,140.294z"/>
		<path d="M71.262,132.095c0.165,0,0.329-0.026,0.488-0.081c6.693-2.278,10.532-8.238,10.532-16.35c0-0.837-0.679-1.515-1.519-1.515
			H70.696c-0.834,0-1.516,0.678-1.516,1.515c0,0.836,0.682,1.515,1.516,1.515h8.497c-0.077,1.088-0.252,2.258-0.565,3.428h-8.491
			c-0.836,0-1.515,0.679-1.515,1.515s0.678,1.515,1.515,1.515h7.279c-1.253,2.313-3.301,4.368-6.642,5.505
			c-0.385,0.132-0.695,0.403-0.873,0.766c-0.181,0.365-0.207,0.778-0.077,1.163C70.037,131.684,70.612,132.095,71.262,132.095z"/>
	</g>
</g>
</svg>
