<?xml version="1.0" encoding="utf-8"?>
<!-- Generator: Adobe Illustrator 16.0.0, SVG Export Plug-In . SVG Version: 6.00 Build 0)  -->
<!DOCTYPE svg PUBLIC "-//W3C//DTD SVG 1.1//EN" "http://www.w3.org/Graphics/SVG/1.1/DTD/svg11.dtd">
<svg version="1.1" id="Layer_1" xmlns="http://www.w3.org/2000/svg" xmlns:xlink="http://www.w3.org/1999/xlink" x="0px" y="0px"
	 width="159.52px" height="137.482px" viewBox="0 0 159.52 137.482" enable-background="new 0 0 159.52 137.482"
	 xml:space="preserve">
<g>
	<path fill="#040000" d="M120.004,95.271c-0.494-11.283-3.592-19.633-9.281-24.885c-3.148-2.907-7.57-4.444-12.787-4.444
		c-3.703,0-6.547,0.776-6.666,0.81c-0.9,0.25-1.588,0.985-1.779,1.899c-0.027,0.133-2.908,13.374-13.117,19.692
		c-2.783,1.723-6.809,2.918-11.294,3.746c-0.226-3.475-0.977-7.008-2.777-9.701c-1.716-2.564-4.129-4.123-7.173-4.631
		c-8.234-1.373-14.541-6.637-14.601-6.688c-0.742-0.631-1.785-0.773-2.669-0.365c-0.885,0.408-1.451,1.295-1.451,2.27l0.137,20.998
		c-0.667,0.006-1.304,0.273-1.77,0.75c-0.471,0.482-0.728,1.131-0.712,1.805l0.268,11.984c0.03,1.359,1.14,2.428,2.499,2.428h1.634
		c0.762,8,7.089,13.316,14.757,13.316c7.667,0,13.993-5.316,14.755-13.316h22.948c1.367,8,8.57,14.668,17.246,14.668
		c9.648,0,17.498-7.843,17.498-17.491C125.668,103.032,123.477,98.473,120.004,95.271z M79.006,92.596
		c9.875-6.113,13.803-17.158,14.973-21.311c0.967-0.166,2.369-0.342,3.957-0.342c3.994,0,7.154,1.049,9.396,3.117
		c4.121,3.805,6.598,9.795,7.432,17.865c-2.037-0.832-4.26-1.318-6.594-1.318c-8.92,0-16.289,6.332-17.354,15.332H39.276
		l-0.156-6.994C53.565,98.857,70.392,97.928,79.006,92.596z M54.447,82.689c1.672,0.279,2.822,1.066,3.765,2.475
		c1.3,1.941,1.952,4.766,2.092,7.682c-6.595,0.824-13.617,1.045-18.617,1.104V77.756C44.688,79.6,49.135,81.805,54.447,82.689z
		 M53.221,119.256c-4.906,0-8.972-3.316-9.705-8.316h19.408C62.191,115.939,58.125,119.256,53.221,119.256z M108.17,120.625
		c-6.893,0-12.5-5.607-12.5-12.5s5.607-12.5,12.5-12.5s12.498,5.607,12.498,12.5S115.062,120.625,108.17,120.625z"/>
	<path fill="#040000" d="M78.479,55.392l9.432,0.323c0.104,1.848,0.293,3.736,0.621,5.489c0.131,0.7,0.555,1.311,1.164,1.679
		c0.611,0.368,1.348,0.459,2.029,0.25c2.16-0.665,4.293-1.002,6.338-1.002c6.711,0,12.043,3.598,16.371,7.116
		c0.455,0.37,1.016,0.561,1.578,0.561c0.395,0,0.791-0.013,1.154-0.203c0.885-0.461,1.41-1.341,1.338-2.335
		c-1.402-19.318-18.16-24.33-27.84-24.33c-0.014,0-0.113,0-0.129,0c-1.275,0-2.33,0.86-2.445,2.132
		c-0.018,0.184-0.209,2.349-0.266,5.289l-9.248-0.16c-1.366,0.003-2.52,1.136-2.548,2.516
		C76.001,54.097,77.098,55.365,78.479,55.392z M92.914,47.79c2.232,0.231,5.793,0.854,9.344,2.537
		c5.082,2.408,8.479,6.189,10.145,11.278c-3.959-2.477-8.732-4.474-14.34-4.474c-1.635,0-3.305,0.17-4.99,0.507
		c-0.059-0.578-0.102-1.182-0.139-1.768l2.545,0.069c0.018,0,0.033,0,0.051,0c1.357,0,2.471-1.305,2.498-2.668
		c0.027-1.381-1.07-2.748-2.451-2.775l-2.75-0.044C92.844,49.46,92.877,48.55,92.914,47.79z"/>
</g>
<path fill="#040000" d="M133.029,137.482c-1.129,0-2.26-0.43-3.121-1.293c-1.727-1.725-1.727-4.521,0-6.246
	c13.398-13.398,20.777-31.215,20.777-50.166c0-18.951-7.379-36.766-20.777-50.166c-13.4-13.399-31.215-20.778-50.166-20.778
	c-18.95,0-36.766,7.379-50.167,20.778c-27.661,27.661-27.661,72.669,0,100.332c1.725,1.725,1.725,4.521,0,6.246
	s-4.523,1.725-6.246,0c-31.105-31.105-31.105-81.719,0-112.823C38.398,8.298,58.431,0,79.742,0c21.311,0,41.344,8.299,56.41,23.367
	c15.068,15.066,23.367,35.1,23.367,56.411c0,21.311-8.299,41.344-23.367,56.412C135.291,137.053,134.16,137.482,133.029,137.482z"/>
</svg>
