<?xml version="1.0" encoding="utf-8"?>
<!-- Generator: Adobe Illustrator 16.0.0, SVG Export Plug-In . SVG Version: 6.00 Build 0)  -->
<!DOCTYPE svg PUBLIC "-//W3C//DTD SVG 1.1//EN" "http://www.w3.org/Graphics/SVG/1.1/DTD/svg11.dtd">
<svg version="1.1" id="Layer_1" xmlns="http://www.w3.org/2000/svg" xmlns:xlink="http://www.w3.org/1999/xlink" x="0px" y="0px"
	 width="50px" height="43.094px" viewBox="0 0 50 43.094" enable-background="new 0 0 50 43.094" xml:space="preserve">
<g>
	<path d="M41.698,43.093c-0.354,0-0.709-0.135-0.979-0.405c-0.54-0.541-0.54-1.417,0-1.958c4.2-4.2,6.513-9.784,6.513-15.724
		c0-5.94-2.312-11.524-6.513-15.725c-4.2-4.199-9.784-6.513-15.724-6.513S13.471,5.082,9.271,9.281
		c-8.67,8.671-8.67,22.778,0,31.448c0.541,0.541,0.541,1.417,0,1.958s-1.417,0.541-1.958,0c-9.75-9.75-9.75-25.614,0-35.363
		C12.036,2.601,18.315,0,24.995,0c6.68,0,12.959,2.601,17.682,7.324C47.4,12.047,50,18.326,50,25.006
		c0,6.679-2.601,12.959-7.324,17.682C42.406,42.958,42.051,43.093,41.698,43.093z"/>
	<circle cx="25.149" cy="13.834" r="2.927"/>
	<circle cx="25.149" cy="25.478" r="2.927"/>
	<circle cx="25.149" cy="37.122" r="2.927"/>
</g>
</svg>
