<?xml version="1.0" encoding="utf-8"?>
<!-- Generator: Adobe Illustrator 16.0.0, SVG Export Plug-In . SVG Version: 6.00 Build 0)  -->
<!DOCTYPE svg PUBLIC "-//W3C//DTD SVG 1.1//EN" "http://www.w3.org/Graphics/SVG/1.1/DTD/svg11.dtd">
<svg version="1.1" id="Layer_1" xmlns="http://www.w3.org/2000/svg" xmlns:xlink="http://www.w3.org/1999/xlink" x="0px" y="0px"
	 width="50px" height="43.071px" viewBox="0 0 50 43.071" enable-background="new 0 0 50 43.071" xml:space="preserve">
<g>
	<path d="M41.699,43.071c-0.354,0-0.708-0.135-0.979-0.405c-0.541-0.541-0.541-1.417,0-1.957c4.199-4.199,6.512-9.782,6.512-15.721
		S44.919,13.467,40.72,9.268C32.052,0.6,17.948,0.6,9.28,9.268c-4.199,4.199-6.512,9.782-6.512,15.721S5.081,36.51,9.28,40.709
		c0.541,0.54,0.541,1.416,0,1.957c-0.541,0.54-1.417,0.54-1.958,0C2.601,37.944,0,31.666,0,24.988S2.601,12.032,7.322,7.311
		c9.748-9.748,25.608-9.748,35.355,0C47.4,12.032,50,18.311,50,24.988S47.4,37.944,42.677,42.666
		C42.408,42.937,42.053,43.071,41.699,43.071z"/>
	<path d="M26.033,12.076l-0.012,1.449c0.956,0.105,1.776,0.311,2.458,0.612c0.683,0.3,1.275,0.752,1.781,1.356
		c0.398,0.459,0.705,0.932,0.921,1.416c0.215,0.486,0.32,0.93,0.317,1.333C31.496,18.69,31.329,19.077,31,19.4
		c-0.33,0.324-0.727,0.484-1.193,0.48c-0.877-0.007-1.44-0.488-1.692-1.438c-0.285-1.122-0.991-1.87-2.116-2.247l-0.047,5.585
		c1.107,0.313,1.989,0.599,2.645,0.854c0.655,0.257,1.241,0.623,1.757,1.103c0.55,0.497,0.973,1.089,1.268,1.775
		c0.293,0.688,0.438,1.438,0.43,2.253c-0.008,1.02-0.256,1.975-0.742,2.86c-0.486,0.887-1.198,1.608-2.132,2.164
		c-0.937,0.556-2.044,0.882-3.325,0.979l-0.028,3.343c-0.004,0.527-0.059,0.913-0.163,1.153c-0.106,0.241-0.333,0.359-0.683,0.356
		c-0.32-0.002-0.547-0.103-0.674-0.302c-0.129-0.196-0.191-0.502-0.188-0.913l0.03-3.626c-1.045-0.124-1.959-0.378-2.738-0.761
		c-0.781-0.382-1.431-0.855-1.949-1.42c-0.519-0.563-0.9-1.148-1.146-1.754c-0.246-0.607-0.366-1.2-0.36-1.782
		c0.004-0.43,0.175-0.814,0.513-1.157c0.338-0.341,0.759-0.511,1.261-0.507c0.401,0.003,0.741,0.102,1.017,0.291
		c0.276,0.19,0.466,0.456,0.57,0.797c0.236,0.736,0.441,1.299,0.617,1.691c0.176,0.39,0.443,0.748,0.803,1.073
		c0.361,0.325,0.84,0.575,1.438,0.75l0.053-6.242c-1.197-0.342-2.195-0.719-2.998-1.133c-0.801-0.415-1.45-1-1.945-1.754
		c-0.495-0.758-0.737-1.728-0.728-2.907c0.013-1.539,0.514-2.798,1.502-3.773s2.409-1.537,4.264-1.683l0.013-1.424
		c0.006-0.75,0.291-1.124,0.855-1.12C25.755,10.973,26.04,11.341,26.033,12.076z M24.251,21.27l0.043-5.142
		c-0.754,0.219-1.344,0.509-1.766,0.872c-0.425,0.363-0.641,0.916-0.646,1.658c-0.007,0.708,0.186,1.245,0.576,1.609
		C22.851,20.634,23.448,20.968,24.251,21.27z M25.921,25.271l-0.049,5.88c0.905-0.172,1.606-0.527,2.104-1.069
		c0.496-0.542,0.748-1.175,0.755-1.899c0.006-0.78-0.229-1.384-0.704-1.812C27.551,25.942,26.849,25.575,25.921,25.271z"/>
</g>
</svg>
