<?xml version="1.0" encoding="utf-8"?>
<!-- Generator: Adobe Illustrator 16.0.0, SVG Export Plug-In . SVG Version: 6.00 Build 0)  -->
<!DOCTYPE svg PUBLIC "-//W3C//DTD SVG 1.1//EN" "http://www.w3.org/Graphics/SVG/1.1/DTD/svg11.dtd">
<svg version="1.1" id="Layer_1" xmlns="http://www.w3.org/2000/svg" xmlns:xlink="http://www.w3.org/1999/xlink" x="0px" y="0px"
	 width="159.52px" height="137.483px" viewBox="0 0 159.52 137.483" enable-background="new 0 0 159.52 137.483"
	 xml:space="preserve">
<path fill="#040000" d="M133.031,137.483c-1.131,0-2.262-0.432-3.123-1.295c-1.727-1.725-1.727-4.521,0-6.244
	c13.398-13.4,20.777-31.217,20.777-50.168c0-18.949-7.379-36.766-20.777-50.164c-13.4-13.398-31.215-20.777-50.166-20.777
	c-18.95,0-36.766,7.379-50.167,20.777c-27.66,27.662-27.66,72.67,0,100.332c1.725,1.723,1.725,4.52,0,6.244
	c-1.725,1.727-4.523,1.727-6.246,0c-31.105-31.105-31.105-81.717,0-112.822C38.398,8.297,58.431,0,79.742,0
	c21.311,0,41.344,8.297,56.412,23.365s23.365,35.102,23.365,56.41c0,21.311-8.297,41.346-23.365,56.412
	C135.291,137.051,134.16,137.483,133.031,137.483z"/>
<g>
	<path fill="#040000" d="M120.754,122.471L117.42,53.82c-0.078-1.599-1.396-2.854-2.996-2.854h-6.869
		c-2.42-12.703-9.029-19.761-18.939-19.761c-2.312,0-4.441,0.389-6.383,1.14c-1.943-0.751-4.072-1.14-6.385-1.14
		c-9.909,0-16.518,7.058-18.938,19.761h-8.681c-1.601,0-2.919,1.256-2.996,2.854l-3.353,69c-0.04,0.82,0.258,1.62,0.824,2.215
		c0.565,0.595,1.351,0.931,2.172,0.931h12.57h48.26h12.068c0.006,0.001,0.014,0.001,0.02,0c1.656,0,3-1.343,3-3
		C120.795,122.797,120.781,122.632,120.754,122.471z M82.232,36.804c4.777,2.697,7.211,8.425,8.424,14.161h-16.85
		C75.019,45.229,77.455,39.501,82.232,36.804z M88.615,35.205c9.186,0,13.145,7.883,14.811,15.761h-8.641
		c-1.34-7.038-3.969-12.34-7.73-15.672C87.559,35.241,88.076,35.205,88.615,35.205z M75.847,35.205c0.54,0,1.057,0.036,1.561,0.089
		c-3.761,3.332-6.39,8.634-7.731,15.672h-8.639C62.705,43.087,66.664,35.205,75.847,35.205z M60.596,119.965l3.059-63h5.232
		c-0.154,1.903-0.237,3.896-0.237,5.987c0,1.104,0.896,2,2,2s2-0.896,2-2c0-1.644,0.062-3.719,0.27-5.987h18.624
		c0.207,2.269,0.27,4.344,0.27,5.987c0,1.104,0.896,2,2,2c1.105,0,2-0.896,2-2c0-2.091-0.082-4.084-0.236-5.987h8.736
		c0.207,2.269,0.27,4.344,0.27,5.987c0,1.104,0.895,2,2,2c1.104,0,2-0.896,2-2c0-2.091-0.084-4.084-0.238-5.987h3.223l3.059,63
		H60.596z"/>
	<path fill="#040000" d="M73.477,80.157c-0.422,0.396-0.65,1.021-0.65,1.88v0.552l-1,0.553v0.824h1v6h2v-6h2v-1h-2v-0.849
		c0-0.27,0.11-0.49,0.24-0.663s0.363-0.26,0.654-0.26c0.352,0,0.744,0.065,1.157,0.195l0.532-1.509
		c-0.553-0.211-1.19-0.316-1.899-0.316C74.581,79.564,73.899,79.761,73.477,80.157z"/>
	<path fill="#040000" d="M83.689,82.918c-0.553-0.314-1.189-0.472-1.914-0.472c-1.162,0-2.064,0.342-2.707,1.024
		s-0.963,1.64-0.963,2.87c0,0.79,0.146,1.482,0.443,2.075s0.721,1.047,1.273,1.364c0.553,0.316,1.191,0.475,1.914,0.475
		c1.154,0,2.055-0.346,2.701-1.037c0.646-0.692,0.971-1.651,0.971-2.877c0-0.791-0.148-1.479-0.445-2.068
		C84.666,83.685,84.242,83.233,83.689,82.918z M82.945,88.036c-0.24,0.38-0.635,0.569-1.182,0.569c-0.553,0-0.951-0.191-1.197-0.573
		c-0.244-0.381-0.367-0.945-0.367-1.69c0-0.75,0.121-1.311,0.365-1.681c0.242-0.371,0.637-0.557,1.186-0.557
		c0.553,0,0.949,0.187,1.191,0.56s0.363,0.932,0.363,1.678C83.305,87.091,83.186,87.656,82.945,88.036z"/>
	<path fill="#040000" d="M92.922,82.918c-0.553-0.314-1.189-0.472-1.914-0.472c-1.162,0-2.064,0.342-2.707,1.024
		s-0.963,1.64-0.963,2.87c0,0.79,0.146,1.482,0.443,2.075s0.721,1.047,1.273,1.364c0.553,0.316,1.191,0.475,1.914,0.475
		c1.154,0,2.055-0.346,2.701-1.037c0.646-0.692,0.971-1.651,0.971-2.877c0-0.791-0.148-1.479-0.445-2.068
		C93.898,83.685,93.475,83.233,92.922,82.918z M92.178,88.036c-0.24,0.38-0.635,0.569-1.182,0.569c-0.553,0-0.951-0.191-1.197-0.573
		c-0.244-0.381-0.367-0.945-0.367-1.69c0-0.75,0.121-1.311,0.365-1.681c0.242-0.371,0.637-0.557,1.186-0.557
		c0.553,0,0.949,0.187,1.191,0.56s0.363,0.932,0.363,1.678C92.537,87.091,92.418,87.656,92.178,88.036z"/>
	<path fill="#040000" d="M101.826,82.049c0,0.44-0.227,0.916-0.123,1.916h-0.068c-0.498-1-1.221-1.312-2.168-1.312
		c-0.902,0-1.611,0.242-2.125,0.932c-0.516,0.689-0.771,1.601-0.771,2.835c0,1.218,0.252,2.144,0.758,2.831
		c0.504,0.688,1.199,0.929,2.084,0.929c0.957,0,1.668-0.214,2.137-1.214h0.086l0.398,1h1.793v-10h-2V82.049z M101.826,86.604
		c0,0.732-0.224,1.251-0.47,1.556c-0.244,0.306-0.665,0.459-1.19,0.459c-0.475,0-0.858-0.186-1.114-0.557
		c-0.256-0.37-0.392-0.926-0.392-1.667s0.123-1.306,0.377-1.694s0.605-0.583,1.064-0.583c0.561,0,1.035,0.176,1.283,0.525
		c0.25,0.351,0.441,0.93,0.441,1.738V86.604z"/>
</g>
</svg>
